<?xml version="1.0" standalone="no"?>
<!DOCTYPE svg PUBLIC "-//W3C//DTD SVG 20010904//EN"
 "http://www.w3.org/TR/2001/REC-SVG-20010904/DTD/svg10.dtd">
<svg version="1.0" xmlns="http://www.w3.org/2000/svg"
 width="960.000000pt" height="960.000000pt" viewBox="0 0 960.000000 960.000000"
 preserveAspectRatio="xMidYMid meet">
<metadata>
Created by potrace 1.11, written by Peter Selinger 2001-2013
</metadata>
<g transform="translate(0.000000,960.000000) scale(0.100000,-0.100000)"
fill="#000000" stroke="none">
<path d="M6750 6503 c-8 -3 -44 -17 -80 -31 -58 -23 -84 -26 -230 -32 -136 -4
-170 -9 -196 -24 -49 -29 -64 -64 -64 -148 0 -95 17 -160 85 -316 30 -70 61
-154 68 -187 21 -88 32 -109 68 -139 47 -40 112 -34 191 17 91 58 131 75 200
87 78 14 121 38 145 82 42 77 9 503 -48 625 -27 56 -87 84 -139 66z"/>
<path d="M6890 5495 c-66 -58 -91 -71 -207 -101 -117 -30 -157 -53 -183 -105
-27 -52 -26 -125 4 -240 27 -107 64 -194 154 -361 106 -197 125 -330 71 -503
-26 -86 -58 -150 -159 -319 -42 -72 -85 -147 -95 -166 -10 -19 -56 -93 -104
-165 -148 -225 -175 -300 -136 -376 17 -31 69 -69 96 -69 9 0 44 14 79 31 188
95 528 536 685 889 119 268 177 540 179 835 1 134 -3 174 -21 247 -46 180
-151 389 -217 429 -52 32 -88 25 -146 -26z"/>
<path d="M2430 5191 c-105 -34 -192 -111 -238 -209 -25 -52 -27 -68 -27 -182
0 -119 1 -128 32 -192 37 -78 92 -137 165 -175 49 -26 61 -28 168 -28 136 1
180 16 261 92 97 91 142 231 119 376 -21 136 -83 229 -192 287 -58 32 -71 35
-163 37 -55 1 -111 -1 -125 -6z"/>
<path d="M3733 5182 c-150 -54 -241 -180 -251 -351 -8 -146 32 -256 124 -341
75 -69 121 -85 249 -85 98 0 116 3 165 26 109 52 181 144 210 268 17 73 8 201
-20 273 -28 76 -104 159 -178 195 -75 36 -218 44 -299 15z"/>
<path d="M5051 5181 c-60 -23 -68 -28 -129 -85 -91 -85 -136 -231 -113 -368
22 -135 86 -231 193 -289 61 -33 67 -34 173 -34 100 0 116 3 172 29 76 35 144
104 181 184 25 52 27 67 27 183 0 125 0 125 -38 202 -42 84 -90 132 -173 169
-71 32 -218 36 -293 9z"/>
</g>
</svg>
