<?xml version="1.0" encoding="utf-8"?>
<!-- Generator: Adobe Illustrator 22.1.0, SVG Export Plug-In . SVG Version: 6.00 Build 0)  -->
<svg version="1.1" id="Layer_1" xmlns="http://www.w3.org/2000/svg" xmlns:xlink="http://www.w3.org/1999/xlink" x="0px" y="0px"
	 viewBox="0 0 918.1 918.1" style="enable-background:new 0 0 918.1 918.1;" xml:space="preserve">
<style type="text/css">
	.st0{fill:#ffffff;}
</style>
<g>
	<g>
		<path class="st0" d="M686.1,404.8c0.7-11.7,8.1-17.6,18.5-20.6c7.2-2.1,14.6-3.1,21.6-6.1c5.4-2.3,10.6-5.1,14.2-9.7
			c7.2-8.8,17.9-4.8,22.9,2.1c12.1,16.8,19.5,35.6,23.8,55.8c2.5,11.6,2.3,23.3,2.5,35c-1.5,3.4,0,7-0.9,10.4
			c-3.4,34.6-12.1,67.7-27.5,98.9c-12.4,25.1-28.4,48.1-45.7,70c-10.8,13.7-23.2,25.8-37.9,35.3c-10.4,6.6-23,4.3-25-10.7
			c-0.5-2.1-0.5-4.2,0-6.3c2.2-13,9.8-23.3,17-33.6c10.5-14.9,18.6-31.1,28-46.6c6.6-11,13.6-21.7,18.4-33.8
			c2.7-6.9,3.9-14.1,5.3-21.3c0.9-5.7,1-11.4,0-17.1c-1.3-14.5-8.6-26.7-15.6-38.9c-10-17.7-17.8-36.1-19.6-56.6
			C685.7,409,685.7,406.9,686.1,404.8z"/>
		<path class="st0" d="M748.6,313.1c-0.4,2.7-0.8,5.5-1.3,8.2c-2.5,11.3-6.6,15.9-18.2,17.4c-10.1,1.3-18.9,5-27,10.9
			c-4,2.9-8.4,5.1-13.2,6.4c-2.5,0.5-5.1,0.6-7.6-0.1c-6.7-0.9-10.1-5.8-11.4-11.3c-4.4-17.6-11.7-34-18.4-50.6
			c-2.3-5.7-4-11.9-4-18.3c-0.5-4.2-0.5-8.5,0-12.7c2.5-11.5,5.9-13.9,22.3-15.9c5.5-0.4,11.1-0.5,16.6,0c9.5,1.5,18.2-1.1,26.5-5.1
			c15.7-7.5,25.9-2.1,29.1,14.8c2.7,14,5,28.1,6.6,42.2C749.2,303.7,749.2,308.4,748.6,313.1z"/>
		<path class="st0" d="M299.2,453.8c1.7-18.5,9.3-33.4,26.5-42.2c5.1-2.6,10.8-3.5,16.4-4.6c4.7-0.5,9.4-0.6,14,0
			c20,3.8,33.5,15,39.1,35c6.9,24.7-1.5,54.7-28.1,65.4c-4,1.6-8.2,2.4-12.3,3.3c-4.7,0.6-9.3,0.5-14,0.1
			c-21.9-1.9-39.7-19-41.6-46.8C298.6,460.6,298.6,457.2,299.2,453.8z"/>
		<path class="st0" d="M511.1,510.8c-20.6-2.7-32.9-14.8-38.8-34.2c-6.8-22.5-0.8-49.3,19.8-62.6c6.2-4,13.2-5.5,20.3-7
			c4.7-0.6,9.3-0.5,14-0.1c24.3,4.2,37.2,19.5,41.6,43c0.6,6,0.6,11.9,0,17.9c-3.1,16.2-10.8,29.2-25.5,37.6
			c-5.5,3.1-11.5,4-17.4,5.4C520.4,511.3,515.8,511.4,511.1,510.8z"/>
		<path class="st0" d="M185.9,407.1c21.3,4.4,35,16.9,39.5,38.4c5.1,24.4-3.1,48.6-25.6,60.5c-5.2,2.7-10.8,3.9-16.4,4.9
			c-4.7,0.4-9.4,0.6-14-0.1c-21.4-2.1-38.6-21.6-40.3-41.6c-0.7-6.4-0.5-12.8-0.1-19.2c3.2-23.1,17.5-39.1,41.7-42.9
			C175.7,406.4,180.8,406.4,185.9,407.1z"/>
	</g>
</g>
</svg>
