<!-- Generated by IcoMoon.io -->
<svg version="1.1" xmlns="http://www.w3.org/2000/svg" width="32" height="32" viewBox="0 0 32 32">
<title>close-icon</title>
<path fill="#e23b3b" d="M20.042 15.999l11.134 11.134c0.515 0.517 0.834 1.23 0.834 2.017 0 1.578-1.28 2.858-2.858 2.858-0.787 0-1.501-0.318-2.017-0.834l-11.134-11.132-11.133 11.098c-0.517 0.515-1.23 0.834-2.017 0.834-1.578 0-2.858-1.28-2.858-2.858 0-0.787 0.318-1.501 0.834-2.017l11.132-11.133-11.134-11.098c-0.519-0.518-0.841-1.233-0.841-2.024 0-1.578 1.28-2.858 2.858-2.858 0.791 0 1.507 0.321 2.024 0.841l11.134 11.133 11.099-11.134c0.517-0.515 1.23-0.834 2.017-0.834 1.578 0 2.858 1.28 2.858 2.858 0 0.787-0.318 1.501-0.834 2.017l0-0z"></path>
</svg>
