<!-- Generated by IcoMoon.io -->
<svg version="1.1" xmlns="http://www.w3.org/2000/svg" width="32" height="32" viewBox="0 0 32 32">
<title>github-white-icon</title>
<path fill="#fff" d="M16 0c-8.837 0-16 7.163-16 16s7.163 16 16 16c8.837 0 16-7.163 16-16v0c-0.027-8.826-7.174-15.973-15.997-16h-0.003zM25.6 25.6c-1.156 1.193-2.556 2.143-4.119 2.772l-0.080 0.028c-0.333 0.147-0.733 0.284-1.146 0.388l-0.054 0.012v-2.4c0.006-0.073 0.010-0.157 0.010-0.242 0-1.072-0.557-2.013-1.397-2.551l-0.012-0.007c0.599 0 1.001-0.199 1.399-0.199 0.518-0.043 0.994-0.186 1.421-0.41l-0.020 0.010c0.548-0.187 1.010-0.39 1.452-0.626l-0.052 0.026c0.46-0.283 0.855-0.614 1.196-0.994l0.004-0.005c0.364-0.412 0.695-0.87 0.979-1.36l0.022-0.041c0.239-0.512 0.445-1.113 0.588-1.738l0.012-0.063c0.134-0.53 0.211-1.139 0.211-1.766 0-0.152-0.005-0.304-0.014-0.454l0.001 0.021c-0.014-1.613-0.618-3.083-1.606-4.207l0.006 0.007c0.176-0.52 0.278-1.118 0.278-1.74 0-0.818-0.176-1.595-0.492-2.295l0.014 0.035h-0.4c-0.016-0-0.035-0.001-0.054-0.001-0.501 0-0.967 0.149-1.356 0.406l0.009-0.006c-0.915 0.3-1.711 0.708-2.427 1.218l0.027-0.018c-1.135-0.377-2.441-0.596-3.798-0.599h-0.002c-0.032-0-0.069-0.001-0.107-0.001-1.321 0-2.591 0.22-3.775 0.625l0.082-0.024c-0.599-0.4-0.999-0.599-1.6-0.999-0.407-0.188-0.879-0.329-1.374-0.399l-0.027-0.003c-0.201 0-0.601-0.199-0.8-0.199h-0.601c-0.302 0.665-0.478 1.442-0.478 2.26 0 0.622 0.102 1.221 0.29 1.78l-0.011-0.039c-0.982 1.116-1.586 2.586-1.6 4.197l-0 0.003c-0.008 0.128-0.012 0.279-0.012 0.43 0 0.628 0.077 1.238 0.223 1.821l-0.011-0.052 0.601 1.801c0.28 0.535 0.613 0.996 1.002 1.403l-0.002-0.002c0.345 0.386 0.74 0.717 1.177 0.986l0.023 0.013c0.39 0.21 0.852 0.413 1.332 0.58l0.068 0.021c0.406 0.188 0.878 0.328 1.373 0.397l0.027 0.003c0.4 0 0.8 0.199 1.401 0.199-0.854 0.645-1.4 1.659-1.401 2.8v2.4c0-0.199-0.8-0.4-1.399-0.4-1.644-0.657-3.044-1.607-4.198-2.797l-0.003-0.003c-1.193-1.156-2.143-2.556-2.772-4.119l-0.028-0.080c-0.633-1.54-1-3.327-1-5.2s0.367-3.66 1.034-5.294l-0.034 0.094c0.657-1.644 1.607-3.044 2.797-4.198l0.003-0.003c1.157-1.193 2.556-2.143 4.12-2.772l0.080-0.028c1.54-0.61 3.324-0.975 5.19-0.999l0.010-0c1.876 0.025 3.66 0.389 5.302 1.035l-0.102-0.035c1.644 0.657 3.044 1.607 4.198 2.797l0.003 0.003c1.193 1.157 2.143 2.556 2.772 4.12l0.028 0.080c0.633 1.54 1 3.327 1 5.2s-0.367 3.66-1.034 5.294l0.034-0.094c-0.432 1.654-1.269 3.074-2.401 4.199l-0 0z"></path>
</svg>
