<?xml version="1.0" encoding="utf-8"?>
<!-- Generator: Adobe Illustrator 22.1.0, SVG Export Plug-In . SVG Version: 6.00 Build 0)  -->
<svg version="1.1" id="icons-sprite" xmlns="http://www.w3.org/2000/svg" xmlns:xlink="http://www.w3.org/1999/xlink" x="0px"
	 y="0px" viewBox="0 0 350 70" style="enable-background:new 0 0 350 70;" xml:space="preserve">
<style type="text/css">
	.st0{fill:#6D86AA;}
	.st1{fill:none;}
	.st2{fill:none;stroke:#6D86AA;}
	.st3{fill:#FFFFFF;}
	.st4{fill:#10B5DC;}
	.st5{fill:#020202;}
	.st6{fill:#f2f2f2;}
	.st7{opacity:0.2;}
	.st8{fill:#DD0000;}
</style>
<g id="social-github-icon" transform="translate(-252 -1659)">
	<path id="Path_48" class="st0" d="M270,1662c-8.3,0-15,6.7-15,15s6.7,15,15,15s15-6.7,15-15S278.3,1662,270,1662z M279.9,1686.9
		c-5.5,5.5-14.4,5.5-19.9,0c-5.5-5.5-5.5-14.4,0-19.9c5.5-5.5,14.4-5.5,19.9,0c2.6,2.6,4.1,6.2,4.1,9.9
		C284.1,1680.7,282.6,1684.3,279.9,1686.9z"/>
	<path id="Path_49" class="st0" d="M270,1670.2c-3.7-0.1-6.7,2.9-6.8,6.6c-0.1,3,1.8,5.6,4.7,6.5c0.3,0.1,0.5-0.1,0.5-0.3
		c0-0.2,0-0.7,0-1.2c-1.9,0.4-2.3-0.8-2.3-0.8c-0.1-0.4-0.4-0.8-0.8-1c-0.6-0.4,0-0.4,0-0.4c0.4,0.1,0.8,0.3,1,0.7
		c0.4,0.7,1.3,0.9,2,0.6c0-0.3,0.2-0.7,0.4-0.9c-1.5-0.2-3.1-0.7-3.1-3.3c0-0.7,0.2-1.3,0.7-1.8c-0.2-0.6-0.2-1.2,0.1-1.8
		c0,0,0.6-0.2,1.9,0.7c1.1-0.3,2.3-0.3,3.4,0c1.3-0.9,1.9-0.7,1.9-0.7c0.3,0.6,0.3,1.2,0.1,1.8c0.5,0.5,0.7,1.1,0.7,1.8
		c0,2.6-1.6,3.1-3.1,3.3c0.3,0.3,0.5,0.8,0.5,1.2c0,0.9,0,1.6,0,1.8c0,0.2,0.1,0.4,0.5,0.3c3.5-1.1,5.5-4.9,4.3-8.4
		C275.5,1672,272.9,1670.2,270,1670.2L270,1670.2z"/>
</g>
<g id="social-instagram-icon" transform="translate(-97 -1659.104)">
	<path id="Path_50" class="st0" d="M150,1692.1c-8.3,0-15-6.7-15-15s6.7-15,15-15s15,6.7,15,15S158.3,1692.1,150,1692.1z
		 M150,1662.8c-7.9,0-14.3,6.4-14.3,14.3s6.4,14.3,14.3,14.3c7.9,0,14.3-6.4,14.3-14.3C164.3,1669.2,157.9,1662.8,150,1662.8
		C150,1662.8,150,1662.8,150,1662.8z"/>
	<path id="Path_51" class="st0" d="M153.9,1670.7h-7.8c-1.4,0-2.5,1.1-2.5,2.5v7.8c0,1.4,1.1,2.5,2.5,2.5h7.8c1.4,0,2.5-1.1,2.5-2.5
		v-7.8C156.4,1671.8,155.3,1670.7,153.9,1670.7C153.9,1670.7,153.9,1670.7,153.9,1670.7z M154.6,1672.2h0.3v2.2h-2.2v-2.2H154.6z
		 M148.2,1675.7c0.7-1,2.1-1.2,3.1-0.5c0.2,0.1,0.4,0.3,0.5,0.5c0.3,0.4,0.4,0.8,0.4,1.3c0,1.2-1,2.2-2.2,2.2c-1.2,0-2.2-1-2.2-2.2
		C147.8,1676.6,147.9,1676.1,148.2,1675.7L148.2,1675.7z M155.1,1680.9c0,0.7-0.5,1.2-1.2,1.2c0,0,0,0,0,0h-7.8
		c-0.7,0-1.2-0.5-1.2-1.2c0,0,0,0,0,0v-5.2h1.9c-0.2,0.4-0.3,0.9-0.2,1.3c0,1.9,1.5,3.5,3.5,3.5s3.5-1.5,3.5-3.5c0,0,0,0,0,0
		c0-0.4-0.1-0.9-0.2-1.3h1.9L155.1,1680.9L155.1,1680.9z"/>
</g>
<g id="social-youtube-icon" transform="translate(-122 -1659)">
	<path id="Path_58" class="st0" d="M210,1692c-8.3,0-15-6.7-15-15s6.7-15,15-15s15,6.7,15,15S218.3,1692,210,1692z M210,1662.7
		c-7.9,0-14.3,6.4-14.3,14.3s6.4,14.3,14.3,14.3s14.3-6.4,14.3-14.3l0,0C224.3,1669.1,217.9,1662.7,210,1662.7z"/>
	<path id="Path_59" class="st0" d="M212.6,1677l-4.3,2.5v-5.1L212.6,1677z M216.6,1679.3v-4.7c0-1.2-0.9-2.2-2.2-2.3
		c0,0-0.1,0-0.1,0h-8.6c-1.2,0-2.2,0.9-2.3,2.2c0,0,0,0.1,0,0.1v4.7c0,1.2,0.9,2.2,2.2,2.3c0,0,0.1,0,0.1,0h8.6
		C215.6,1681.6,216.6,1680.6,216.6,1679.3"/>
</g>
<g id="menu-close-icon" transform="translate(-217 -22)">
	<g id="Rectangle_20" transform="translate(360 25)">
		<path class="st1" d="M15,0L15,0c8.3,0,15,6.7,15,15l0,0c0,8.3-6.7,15-15,15l0,0C6.7,30,0,23.3,0,15l0,0C0,6.7,6.7,0,15,0z"/>
		<path class="st2" d="M15,0.5L15,0.5C23,0.5,29.5,7,29.5,15l0,0c0,8-6.5,14.5-14.5,14.5l0,0C7,29.5,0.5,23,0.5,15l0,0
			C0.5,7,7,0.5,15,0.5z"/>
	</g>
	<path id="Path_37" class="st3" d="M376.9,40l4.2,4.2c0.4,0.4,0.4,1.1,0,1.5s-1.1,0.4-1.5,0l-4.2-4.2l-4.2,4.2
		c-0.4,0.4-1.1,0.4-1.5,0c-0.4-0.4-0.4-1.1,0-1.5l0,0l4.2-4.2l-4.2-4.2c-0.4-0.4-0.4-1.1,0-1.5c0.4-0.4,1.1-0.4,1.5,0l4.2,4.2
		l4.2-4.2c0.4-0.4,1.1-0.4,1.5,0c0.4,0.4,0.4,1.1,0,1.5L376.9,40z"/>
</g>
<g id="menu-icon" transform="translate(-252 -22)">
	<g id="Group_30" transform="translate(360 25)">
		<path id="Path_38" class="st1" d="M15,0c8.3,0,15,6.7,15,15s-6.7,15-15,15S0,23.3,0,15S6.7,0,15,0z"/>
		<path id="Path_39" class="st0" d="M15,1C7.3,1,1,7.3,1,15c0,3.7,1.5,7.3,4.1,9.9c5.5,5.5,14.3,5.5,19.8,0s5.5-14.3,0-19.8
			C22.3,2.5,18.7,1,15,1 M15,0c8.3,0,15,6.7,15,15s-6.7,15-15,15S0,23.3,0,15S6.7,0,15,0z"/>
	</g>
	<g id="Group_32" transform="translate(237.363 -204.789)">
		<g id="Group_31" transform="translate(128.637 238.694)">
			<path id="Path_40" class="st4" d="M14.9,4.4c0-0.3,0.2-0.5,0.5-0.5c0.2,0,0.4-0.1,0.6-0.2c0.1-0.1,0.3-0.1,0.4-0.3
				c0.1-0.2,0.4-0.2,0.5,0c0,0,0.1,0.1,0.1,0.1c0.3,0.4,0.5,1,0.6,1.5c0.1,0.3,0.1,0.6,0.1,0.9c0,0.1,0,0.2,0,0.3
				c-0.1,0.9-0.3,1.8-0.7,2.6c-0.3,0.7-0.7,1.3-1.2,1.9c-0.3,0.4-0.6,0.7-1,0.9c-0.3,0.2-0.6,0.1-0.7-0.3c0-0.1,0-0.1,0-0.2
				c0.1-0.3,0.2-0.6,0.5-0.9c0.3-0.4,0.5-0.8,0.7-1.2c0.2-0.3,0.4-0.6,0.5-0.9c0.1-0.2,0.1-0.4,0.1-0.6c0-0.2,0-0.3,0-0.5
				c-0.1-0.4-0.2-0.7-0.4-1c-0.3-0.5-0.5-1-0.5-1.5C14.9,4.6,14.9,4.5,14.9,4.4L14.9,4.4z"/>
			<path id="Path_41" class="st4" d="M16.6,2c0,0.1,0,0.1,0,0.2c-0.1,0.3-0.2,0.4-0.5,0.5c-0.3,0-0.5,0.1-0.7,0.3
				C15.2,3,15.1,3.1,15,3.1c-0.1,0-0.1,0-0.2,0c-0.2,0-0.3-0.1-0.3-0.3c-0.1-0.5-0.3-0.9-0.5-1.4c-0.1-0.2-0.1-0.3-0.1-0.5
				c0-0.1,0-0.2,0-0.3c0.1-0.3,0.2-0.4,0.6-0.4c0.1,0,0.3,0,0.4,0c0.2,0,0.5,0,0.7-0.1C16-0.1,16.3,0,16.4,0.5
				c0.1,0.4,0.1,0.8,0.2,1.1C16.6,1.7,16.6,1.9,16.6,2L16.6,2z"/>
			<path id="Path_42" class="st4" d="M4.6,5.7c0-0.5,0.3-0.9,0.7-1.1c0.1-0.1,0.3-0.1,0.4-0.1c0.1,0,0.2,0,0.4,0
				c0.5,0.1,0.9,0.4,1,0.9C7.4,6.1,7,6.9,6.4,7.2C6.3,7.2,6.2,7.2,6,7.3c-0.1,0-0.2,0-0.4,0C5,7.2,4.5,6.7,4.6,6
				C4.5,5.9,4.5,5.8,4.6,5.7L4.6,5.7z"/>
			<path id="Path_43" class="st4" d="M10.2,7.3c-0.5-0.1-0.9-0.4-1-0.9C9,5.7,9.2,5.1,9.7,4.7c0.2-0.1,0.4-0.2,0.5-0.2
				c0.1,0,0.2,0,0.4,0c0.6,0.1,1.1,0.6,1.1,1.1c0,0.2,0,0.3,0,0.5c-0.1,0.4-0.3,0.8-0.7,1c-0.1,0.1-0.3,0.1-0.5,0.1
				C10.5,7.3,10.3,7.3,10.2,7.3z"/>
			<path id="Path_44" class="st4" d="M1.5,4.5c0.5,0.1,1,0.5,1.1,1c0.2,0.6-0.1,1.3-0.7,1.6C1.8,7.2,1.6,7.3,1.5,7.3
				c-0.1,0-0.2,0-0.4,0C0.5,7.2,0.1,6.7,0,6.2C0,6,0,5.8,0,5.6c0.1-0.6,0.5-1.1,1.1-1.1C1.3,4.5,1.4,4.5,1.5,4.5z"/>
		</g>
	</g>
</g>
<g id="email-icon" transform="translate(180 6)">
	<path id="Path_29" class="st0" d="M12.5,1.2c6.2,0,11.2,5,11.2,11.2s-5,11.2-11.2,11.2s-11.2-5-11.2-11.2S6.3,1.2,12.5,1.2 M12.5,0
		C5.6,0,0,5.6,0,12.5S5.6,25,12.5,25S25,19.4,25,12.5S19.4,0,12.5,0z"/>
	<g id="Group_28" transform="translate(5.414 5.105)">
		<path id="Path_30" class="st3" d="M10.4,14c-1.2,0.6-2.5,0.9-3.8,0.8C3,14.9,0.1,12.1,0,8.6c0-0.1,0-0.3,0-0.4
			C-0.2,3.8,3.2,0.2,7.5,0c0.1,0,0.2,0,0.3,0c3.3-0.2,6.1,2.3,6.3,5.6c0,0.2,0,0.3,0,0.5c0,3.1-1.8,5.1-3.9,5.1
			c-0.9,0.1-1.7-0.6-1.7-1.5c0-0.1,0-0.2,0-0.2H8.5c-0.5,1.1-1.6,1.7-2.8,1.7c-1.3,0-2.4-1.1-2.4-2.5c0-0.1,0-0.2,0-0.2
			c0-2.7,2.2-5,4.9-5c0,0,0.1,0,0.1,0c0.8,0,1.7,0.2,2.4,0.5L10,7.9C9.8,9.3,10,9.9,10.6,9.9c1,0,2.2-1.3,2.2-3.7
			C13,3.6,11,1.4,8.4,1.2c-0.2,0-0.5,0-0.7,0C4.3,1.2,1.4,3.8,1.4,8c0,3.5,2.3,5.6,5.4,5.6c1.1,0,2.2-0.2,3.1-0.7L10.4,14z M8.8,5
			C8.6,5,8.3,4.9,8,4.9C6.3,5.1,5,6.6,5.1,8.3c0,0.9,0.4,1.5,1.2,1.5c1,0,2-1.3,2.2-2.5L8.8,5z"/>
	</g>
</g>
<g id="github-icon" transform="translate(168.708 -644.42)">
	<path id="Path_31" class="st5" d="M60.1,650.7c-6.5-0.1-11.9,5.1-12,11.6c-0.1,5.2,3.2,9.8,8.2,11.4c0.6,0.1,0.8-0.3,0.8-0.6
		c0-0.3,0-1.2,0-2.2c-3.3,0.7-4-1.4-4-1.4c-0.2-0.7-0.7-1.3-1.3-1.7c-1.1-0.7,0.1-0.7,0.1-0.7c0.8,0.1,1.4,0.5,1.8,1.2
		c0.7,1.2,2.3,1.7,3.5,1c0.1-0.6,0.3-1.2,0.8-1.6c-2.7-0.3-5.5-1.3-5.5-5.8c0-1.2,0.4-2.3,1.2-3.2c-0.4-1-0.3-2.1,0.1-3.1
		c0,0,1-0.3,3.3,1.2c2-0.5,4-0.5,6,0c2.3-1.5,3.3-1.2,3.3-1.2c0.4,1,0.5,2.1,0.1,3.1c0.8,0.9,1.2,2,1.2,3.2c0,4.5-2.8,5.5-5.5,5.8
		c0.6,0.6,0.9,1.4,0.8,2.2c0,1.6,0,2.8,0,3.2c0,0.3,0.2,0.7,0.8,0.6c6.2-2,9.6-8.6,7.6-14.8C70,653.9,65.3,650.6,60.1,650.7
		L60.1,650.7z"/>
</g>
<g id="youtube-white-icon" transform="translate(20.19 -644.662)">
	<path id="Path_60" class="st3" d="M246.4,662.4l-7.5,4.4V658L246.4,662.4z M253.4,666.5v-8.2c0,0,0-4-4-4h-15.1c0,0-4,0-4,4v8.2
		c0,0,0,4,4,4h15.1C249.4,670.4,253.4,670.4,253.4,666.5"/>
</g>
<g id="logo-icon" transform="translate(193.724 -226.394)">
	<g id="Group_29" transform="translate(128.637 238.694)">
		<path id="Path_32" class="st4" d="M14.9,4.4c0-0.3,0.2-0.5,0.5-0.5c0.2,0,0.4-0.1,0.6-0.2c0.1-0.1,0.3-0.1,0.4-0.3
			c0.1-0.2,0.4-0.2,0.5,0c0,0,0.1,0.1,0.1,0.1c0.3,0.4,0.5,1,0.6,1.5c0.1,0.3,0.1,0.6,0.1,0.9c0,0.1,0,0.2,0,0.3
			c-0.1,0.9-0.3,1.8-0.7,2.6c-0.3,0.7-0.7,1.3-1.2,1.9c-0.3,0.4-0.6,0.7-1,0.9c-0.3,0.2-0.6,0.1-0.7-0.3c0-0.1,0-0.1,0-0.2
			c0.1-0.3,0.2-0.6,0.5-0.9c0.3-0.4,0.5-0.8,0.7-1.2c0.2-0.3,0.4-0.6,0.5-0.9c0.1-0.2,0.1-0.4,0.1-0.6c0-0.2,0-0.3,0-0.5
			c-0.1-0.4-0.2-0.7-0.4-1c-0.3-0.5-0.5-1-0.5-1.5C14.9,4.6,14.9,4.5,14.9,4.4L14.9,4.4z"/>
		<path id="Path_33" class="st4" d="M16.6,2c0,0.1,0,0.1,0,0.2c-0.1,0.3-0.2,0.4-0.5,0.5c-0.3,0-0.5,0.1-0.7,0.3
			C15.2,3,15.1,3.1,15,3.1c-0.1,0-0.1,0-0.2,0c-0.2,0-0.3-0.1-0.3-0.3c-0.1-0.5-0.3-0.9-0.5-1.4c-0.1-0.2-0.1-0.3-0.1-0.5
			c0-0.1,0-0.2,0-0.3c0.1-0.3,0.2-0.4,0.6-0.4c0.1,0,0.3,0,0.4,0c0.2,0,0.5,0,0.7-0.1C16-0.1,16.3,0,16.4,0.5
			c0.1,0.4,0.1,0.8,0.2,1.1C16.6,1.7,16.6,1.9,16.6,2L16.6,2z"/>
		<path id="Path_34" class="st4" d="M4.6,5.7c0-0.5,0.3-0.9,0.7-1.1c0.1-0.1,0.3-0.1,0.4-0.1c0.1,0,0.2,0,0.4,0
			c0.5,0.1,0.9,0.4,1,0.9C7.4,6.1,7,6.9,6.4,7.2C6.3,7.2,6.2,7.2,6,7.3c-0.1,0-0.2,0-0.4,0C5,7.2,4.5,6.7,4.6,6
			C4.5,5.9,4.5,5.8,4.6,5.7L4.6,5.7z"/>
		<path id="Path_35" class="st4" d="M10.2,7.3c-0.5-0.1-0.9-0.4-1-0.9C9,5.7,9.2,5.1,9.7,4.7c0.2-0.1,0.4-0.2,0.5-0.2
			c0.1,0,0.2,0,0.4,0c0.6,0.1,1.1,0.6,1.1,1.1c0,0.2,0,0.3,0,0.5c-0.1,0.4-0.3,0.8-0.7,1c-0.1,0.1-0.3,0.1-0.5,0.1
			C10.5,7.3,10.3,7.3,10.2,7.3z"/>
		<path id="Path_36" class="st4" d="M1.5,4.5c0.5,0.1,1,0.5,1.1,1c0.2,0.6-0.1,1.3-0.7,1.6C1.8,7.2,1.6,7.3,1.5,7.3
			c-0.1,0-0.2,0-0.4,0C0.5,7.2,0.1,6.7,0,6.2C0,6,0,5.8,0,5.6c0.1-0.6,0.5-1.1,1.1-1.1C1.3,4.5,1.4,4.5,1.5,4.5z"/>
	</g>
</g>
<g id="next-icon" transform="translate(-349 -171.788)">
	<path id="Path_45" class="st6" d="M406,224.9l-7.3,4.9c-0.5,0.4-1.1,0.3-1.5-0.2c-0.1-0.2-0.2-0.4-0.2-0.6V219l0,0
		c0-0.2,0.1-0.4,0.2-0.6c0.3-0.5,1-0.6,1.5-0.3l7.3,5c0.1,0.1,0.2,0.2,0.3,0.3C406.6,223.9,406.5,224.6,406,224.9L406,224.9z"/>
</g>
<g id="prev-icon" transform="translate(-330 -172.003)">
	<path id="Path_46" class="st6" d="M343.5,223.1l7.3-4.9c0.5-0.4,1.1-0.3,1.5,0.2c0.1,0.2,0.2,0.4,0.2,0.6v9.9l0,0
		c0,0.2-0.1,0.4-0.2,0.6c-0.3,0.5-1,0.6-1.5,0.3l-7.3-5c-0.1-0.1-0.2-0.2-0.3-0.3C342.9,224.1,343,223.4,343.5,223.1L343.5,223.1z"
		/>
</g>
<path id="search-clear-icon" class="st3" d="M124.6,51.9l4.2,4.2c0.4,0.4,0.4,1.1,0,1.5c-0.4,0.4-1.1,0.4-1.5,0l-4.2-4.2l-4.2,4.2
	c-0.4,0.4-1.1,0.4-1.5,0s-0.4-1.1,0-1.5l0,0l4.2-4.2l-4.2-4.2c-0.4-0.4-0.4-1.1,0-1.5c0.4-0.4,1.1-0.4,1.5,0l4.2,4.2l4.2-4.2
	c0.4-0.4,1.1-0.4,1.5,0c0.4,0.4,0.4,1.1,0,1.5L124.6,51.9z"/>
<g id="search-icon" transform="translate(-274.698 -54.209)" class="st7">
	<path id="Path_47" class="st0" d="M359.1,109.5c3,3,7.9,3,10.9-0.1s3-7.9-0.1-10.9c-3-3-7.9-3-10.9,0.1c-1.4,1.4-2.2,3.4-2.2,5.4
		C356.8,106.1,357.6,108,359.1,109.5z M360.5,99.9c2.3-2.2,5.9-2.2,8.2,0c2.2,2.3,2.2,5.9,0,8.2c-2.3,2.2-5.9,2.2-8.2,0
		c-1.1-1.1-1.7-2.5-1.7-4.1C358.7,102.5,359.4,101,360.5,99.9z M352.6,115.9c0.4,0.4,1,0.4,1.4,0l4.2-4.2c0.4-0.4,0.3-1-0.1-1.4
		c-0.4-0.3-1-0.3-1.3,0l-4.2,4.2C352.3,114.9,352.3,115.5,352.6,115.9L352.6,115.9z"/>
</g>
<path id="youtube-icon" class="st8" d="M303.3,18.1l-9.6,5.6V12.5L303.3,18.1z M312.2,23.3V12.9c0,0,0-5-5-5H288c0,0-5,0-5,5v10.5
	c0,0,0,5,5,5h19.1C307.2,28.3,312.2,28.3,312.2,23.3"/>
</svg>
