<!-- Generated by IcoMoon.io -->
<svg version="1.1" xmlns="http://www.w3.org/2000/svg" width="32" height="32" viewBox="0 0 32 32">
<title>instagram-icon</title>
<path fill="#fff" d="M8.213 0c-4.533 0.008-8.205 3.68-8.213 8.213v15.569c0.008 4.533 3.68 8.205 8.213 8.213h15.574c4.533-0.008 8.205-3.68 8.213-8.213v-15.566c-0.008-4.533-3.68-8.205-8.213-8.213h-0.001zM8.213 2.594h15.573c0.012-0 0.026-0 0.041-0 3.082 0 5.581 2.499 5.581 5.581 0 0.014-0 0.029-0 0.043v-0.002 15.568c0 0.012 0 0.026 0 0.041 0 3.082-2.499 5.581-5.581 5.581-0.014 0-0.029-0-0.043-0h-15.571c-0.012 0-0.026 0-0.041 0-3.082 0-5.581-2.499-5.581-5.581 0-0.014 0-0.029 0-0.043v0.002-15.567c-0-0.012-0-0.026-0-0.041 0-3.082 2.499-5.581 5.581-5.581 0.014 0 0.029 0 0.043 0h-0.002zM24.645 5.188c-0.956 0-1.73 0.775-1.73 1.73s0.775 1.73 1.73 1.73c0.956 0 1.73-0.775 1.73-1.73v0c-0.001-0.954-0.773-1.727-1.727-1.729h-0zM16 8.217c-4.3 0-7.787 3.486-7.787 7.787s3.486 7.787 7.787 7.787c4.3 0 7.787-3.486 7.787-7.787v0c-0.010-4.297-3.49-7.777-7.786-7.787h-0.001zM16 10.811c2.866 0 5.189 2.323 5.189 5.189s-2.323 5.189-5.189 5.189c-2.866 0-5.189-2.323-5.189-5.189v0c-0-0.005-0-0.010-0-0.016 0-2.855 2.315-5.17 5.17-5.17 0.007 0 0.014 0 0.020 0h-0.001z"></path>
</svg>
