<svg xmlns="http://www.w3.org/2000/svg" viewBox="0 0 31.837 21.228"><defs><style>.a{fill:#10b5dc;}</style></defs><g transform="translate(-128.637 -238.694)"><g transform="translate(128.637 238.694)"><path class="a" d="M653.857,365.345a1.062,1.062,0,0,1,.891-.992,8.794,8.794,0,0,0,1.04-.294,1.656,1.656,0,0,0,.684-.467.679.679,0,0,1,1.1.1,7.022,7.022,0,0,1,1.146,2.688,8.616,8.616,0,0,1,.12,1.686c-.072.164,0,.337-.043.5a13.683,13.683,0,0,1-1.325,4.764,19.228,19.228,0,0,1-2.2,3.372,7.575,7.575,0,0,1-1.826,1.7c-.5.318-1.108.207-1.2-.515a.647.647,0,0,1,0-.3,4.06,4.06,0,0,1,.819-1.618c.506-.718.9-1.5,1.349-2.245a11.284,11.284,0,0,0,.886-1.628,5.792,5.792,0,0,0,.255-1.026,2.494,2.494,0,0,0,0-.824,4.646,4.646,0,0,0-.751-1.874,6.726,6.726,0,0,1-.944-2.726A.778.778,0,0,1,653.857,365.345Z" transform="translate(-627.005 -357.344)"/><path class="a" d="M652.013,242.278c-.019.13-.039.265-.063.395-.12.544-.318.766-.877.838a2.76,2.76,0,0,0-1.3.525,1.946,1.946,0,0,1-.636.308.784.784,0,0,1-.366,0,.649.649,0,0,1-.549-.544,18.626,18.626,0,0,0-.886-2.437,2.371,2.371,0,0,1-.193-.881,2.6,2.6,0,0,1,0-.612c.12-.554.284-.67,1.074-.766a4.917,4.917,0,0,1,.8,0,2.129,2.129,0,0,0,1.277-.246c.756-.361,1.247-.1,1.4.713.13.674.241,1.354.318,2.033A2.668,2.668,0,0,1,652.013,242.278Z" transform="translate(-622.151 -238.694)"/><path class="a" d="M298.772,408.861a2.345,2.345,0,0,1,1.276-2.033,2.962,2.962,0,0,1,.79-.222,2.864,2.864,0,0,1,.674,0,2.236,2.236,0,0,1,1.883,1.686,2.569,2.569,0,0,1-1.354,3.15,3.707,3.707,0,0,1-.592.159,3.149,3.149,0,0,1-.674,0,2.24,2.24,0,0,1-2-2.254A1.4,1.4,0,0,1,298.772,408.861Z" transform="translate(-290.556 -398.5)"/><path class="a" d="M471.621,411.6a2.132,2.132,0,0,1-1.869-1.647,2.656,2.656,0,0,1,.954-3.015,2.807,2.807,0,0,1,.978-.337,3.157,3.157,0,0,1,.674,0,2.324,2.324,0,0,1,2,2.071,4.3,4.3,0,0,1,0,.862,2.5,2.5,0,0,1-1.228,1.811,3.074,3.074,0,0,1-.838.26A2.875,2.875,0,0,1,471.621,411.6Z" transform="translate(-453.199 -398.489)"/><path class="a" d="M131.395,406.6a2.249,2.249,0,0,1,1.9,1.85,2.561,2.561,0,0,1-1.233,2.914,2.711,2.711,0,0,1-.79.236,2.87,2.87,0,0,1-.674,0,2.265,2.265,0,0,1-1.941-2,5.4,5.4,0,0,1,0-.925,2.273,2.273,0,0,1,2.009-2.066A2.66,2.66,0,0,1,131.395,406.6Z" transform="translate(-128.637 -398.489)"/></g></g></svg>