<!-- Generated by IcoMoon.io -->
<svg version="1.1" xmlns="http://www.w3.org/2000/svg" width="32" height="32" viewBox="0 0 32 32">
<title>prev-icon</title>
<path d="M5.073 17.354l24.832 14.336c0.234 0.139 0.515 0.221 0.815 0.221 0.893 0 1.617-0.724 1.617-1.617 0-0.001 0-0.002 0-0.003v0-28.672c0-0 0-0 0-0.001 0-0.893-0.724-1.617-1.617-1.617-0.298 0-0.577 0.081-0.817 0.221l0.008-0.004-24.832 14.336c-0.487 0.285-0.809 0.805-0.809 1.4s0.322 1.116 0.801 1.396l0.008 0.004z"></path>
<path d="M1.617 32c0.893 0 1.617-0.724 1.617-1.617v0-28.641c0-0.893-0.724-1.617-1.617-1.617s-1.617 0.724-1.617 1.617v0 28.641c0 0.893 0.724 1.617 1.617 1.617v0z"></path>
</svg>
