<!-- Generated by IcoMoon.io -->
<svg version="1.1" xmlns="http://www.w3.org/2000/svg" width="32" height="32" viewBox="0 0 32 32">
<title>search-icon</title>
<path fill="#cbcbcb" d="M10.725 21.275c2.255 2.255 5.371 3.65 8.812 3.65 6.883 0 12.462-5.58 12.462-12.462s-5.58-12.462-12.462-12.462c-3.442 0-6.557 1.395-8.813 3.65v0c-2.275 2.246-3.685 5.364-3.685 8.812s1.409 6.566 3.683 8.811l0.001 0.001zM12.965 5.894c1.681-1.681 4.003-2.721 6.569-2.721 5.131 0 9.29 4.159 9.29 9.29s-4.159 9.29-9.29 9.29c-2.565 0-4.888-1.040-6.569-2.721v0c-1.695-1.674-2.745-3.998-2.745-6.567 0-2.571 1.051-4.896 2.747-6.569l0.001-0.001zM0.464 31.534c0.287 0.286 0.683 0.463 1.12 0.463s0.833-0.177 1.12-0.463l6.653-6.653c0.257-0.281 0.414-0.656 0.414-1.068 0-0.876-0.71-1.586-1.586-1.586-0.412 0-0.788 0.157-1.070 0.415l0.001-0.001-6.653 6.65c-0.287 0.287-0.465 0.684-0.465 1.122s0.178 0.835 0.465 1.122v0z"></path>
</svg>
